<svg version="1.0" xmlns="http://www.w3.org/2000/svg"
 width="1440.000000pt" height="1200.000000pt" viewBox="0 0 1440.000000 1200.000000"
 preserveAspectRatio="xMidYMid meet">

<g transform="translate(0.000000,1200.000000) scale(0.100000,-0.100000)"
fill="white" stroke="none">
<path d="M8210 11530 l0 -360 -90 0 -90 0 0 -480 0 -480 -150 0 -150 0 0 -320
0 -320 -60 0 -60 0 0 -695 0 -695 -95 0 -95 0 -1 68 c0 45 -6 77 -18 97 -17
29 -19 30 -117 35 l-99 5 -3 98 -3 97 -119 0 c-113 0 -120 1 -120 20 0 18 -7
20 -60 20 l-60 0 0 40 c0 22 -4 40 -10 40 -5 0 -10 23 -10 50 l0 50 -190 0
-190 0 0 -54 c0 -30 -4 -58 -10 -61 -5 -3 -10 -17 -10 -30 0 -50 -7 -55 -85
-55 -64 0 -73 -2 -78 -20 -3 -14 -14 -20 -31 -20 -25 0 -26 -3 -26 -50 0 -27
5 -50 10 -50 6 0 10 -16 10 -35 l0 -35 -185 0 -185 0 0 -102 c-1 -140 2 -138
-144 -138 l-116 0 0 -170 0 -170 -100 0 -100 0 0 -380 0 -380 -60 0 -60 0 0
-130 0 -130 -80 0 -80 0 0 -60 0 -60 -130 0 -130 0 0 -120 0 -120 -130 0 -130
0 0 -120 0 -120 -90 0 -90 0 0 -2695 c0 -2201 -2 -2695 -13 -2695 -24 0 -510
-40 -672 -55 -868 -83 -1782 -234 -2517 -417 l-208 -52 0 -46 0 -47 158 38
c247 61 688 149 742 149 74 0 198 19 249 39 25 10 78 23 116 29 65 10 129 21
450 72 158 26 890 118 1030 129 61 6 146 14 190 20 209 27 638 61 776 61 93 1
189 7 244 16 99 18 658 31 1377 33 256 1 398 5 400 11 3 10 280 1 618 -20 169
-11 792 -11 695 0 -45 5 -25 7 83 8 87 1 142 6 142 12 0 7 313 10 919 10 586
0 921 4 923 10 5 16 1126 17 1353 2 879 -60 1382 -101 1825 -148 283 -30 896
-103 928 -111 21 -5 22 -2 22 50 l0 55 -57 5 c-32 3 -121 10 -198 15 -161 12
-401 47 -460 68 -22 8 -64 17 -92 20 -33 4 -53 12 -53 19 0 21 -45 26 -193 19
-116 -5 -169 -2 -287 15 -79 12 -185 21 -235 21 -49 0 -135 7 -189 15 -55 8
-142 15 -195 15 -53 0 -126 3 -163 7 l-68 6 0 2048 0 2049 -23 0 c-13 0 -27 3
-31 7 -4 4 -42 6 -86 4 -118 -4 -120 -2 -120 124 l0 105 -150 0 -150 0 0 150
0 150 -145 0 -144 0 5 29 c8 39 -6 46 -101 42 -62 -2 -84 1 -93 12 -9 11 -13
116 -14 405 -1 317 -4 392 -15 396 -10 4 -13 37 -13 141 l0 135 -150 0 -150 0
0 90 0 90 -120 0 -120 0 0 80 0 80 -70 0 c-40 0 -70 4 -70 10 0 6 -11 10 -25
10 -25 0 -25 0 -25 94 0 76 -3 95 -16 100 -9 3 -56 6 -105 6 l-89 0 0 39 c0
21 -3 59 -6 85 l-7 46 -123 0 -124 0 0 -99 0 -98 -31 -7 c-17 -3 -88 -6 -158
-6 -180 0 -171 5 -171 -96 0 -97 6 -92 -120 -96 l-75 -3 -3 -77 -3 -78 -84 0
c-46 0 -90 -3 -99 -6 -15 -6 -16 119 -16 1365 l0 1371 -90 0 -90 0 0 320 0
320 -120 0 -120 0 0 480 0 480 -80 0 -80 0 0 360 0 360 -100 0 -100 0 0 -360z
m-1230 -3240 l0 -110 100 0 100 0 0 -110 0 -110 192 0 c183 0 193 1 215 22
l23 21 0 -3366 0 -3367 -70 0 -70 0 0 3290 0 3290 -280 0 -280 0 0 -3290 0
-3290 -80 0 -80 0 0 2310 c0 1533 3 2310 10 2310 7 0 10 423 10 1249 l0 1250
-37 4 c-21 2 26 4 105 5 l142 2 0 -110z m2770 -4275 l0 -2745 -130 0 -130 0 0
2590 0 2590 -150 0 -150 0 0 -2590 0 -2590 -100 0 -100 0 0 2670 0 2670 130 0
130 0 0 60 c0 54 2 60 23 65 59 14 176 23 320 24 l157 1 0 -2745z"/>
</g>
</svg>
